<?xml version="1.0" standalone="no"?>
<!DOCTYPE svg PUBLIC "-//W3C//DTD SVG 20010904//EN"
 "http://www.w3.org/TR/2001/REC-SVG-20010904/DTD/svg10.dtd">
<svg version="1.0" xmlns="http://www.w3.org/2000/svg"
 width="5000.000000pt" height="5000.000000pt" viewBox="0 0 5000.000000 5000.000000"
 preserveAspectRatio="xMidYMid meet">

<g transform="translate(0.000000,5000.000000) scale(0.100000,-0.100000)"
fill="#000000" stroke="none">
<path d="M25385 36684 c-33 -2 -141 -8 -240 -14 -1989 -120 -3893 -857 -5465
-2115 -498 -399 -1032 -927 -1446 -1431 -1020 -1241 -1731 -2759 -2029 -4329
-451 -2382 -20 -4813 1218 -6870 820 -1362 1994 -2533 3352 -3342 1200 -715
2533 -1164 3895 -1312 417 -46 598 -55 1075 -55 465 0 615 6 995 44 1859 187
3620 908 5090 2085 495 396 1037 932 1438 1421 1016 1241 1703 2684 2017 4239
581 2881 -156 5864 -2009 8119 -301 367 -774 857 -1111 1151 -1148 1001 -2455
1700 -3910 2089 -589 158 -1200 258 -1870 306 -148 11 -883 21 -1000 14z m735
-6564 c0 -5 -4 -10 -9 -10 -6 0 -13 5 -16 10 -3 6 1 10 9 10 9 0 16 -4 16 -10z
m530 -252 c0 -13 -32 -6 -37 9 -3 7 3 9 16 6 12 -3 21 -10 21 -15z m-598 -21
c24 -37 -9 -95 -71 -126 -20 -11 -66 -25 -101 -31 -35 -6 -78 -19 -95 -27 -16
-9 -52 -22 -79 -29 -26 -7 -65 -24 -85 -38 -20 -13 -57 -28 -83 -31 -27 -4
-54 -15 -65 -27 -10 -11 -35 -29 -57 -40 -21 -11 -70 -40 -110 -66 -39 -25
-87 -54 -106 -63 -19 -9 -52 -33 -73 -53 -21 -20 -44 -36 -51 -36 -8 0 -20 -7
-27 -17 -8 -9 -26 -24 -41 -33 -15 -9 -67 -54 -116 -101 -49 -46 -100 -94
-113 -106 -60 -54 -139 -142 -163 -181 -15 -24 -33 -45 -41 -48 -8 -3 -40 -58
-71 -122 -31 -65 -67 -129 -81 -144 -19 -20 -27 -42 -31 -80 -4 -37 -13 -63
-32 -88 -16 -19 -31 -46 -35 -60 -4 -14 -20 -38 -35 -55 -20 -21 -32 -48 -39
-88 -10 -56 -22 -88 -45 -116 -6 -8 -16 -40 -23 -73 -6 -32 -21 -71 -32 -87
-12 -16 -28 -62 -36 -102 -9 -40 -23 -81 -32 -92 -17 -18 -18 -18 -24 0 -14
35 9 139 37 173 7 9 20 44 28 79 8 35 24 73 36 86 12 13 24 45 30 78 10 65 23
93 49 106 13 8 20 25 23 64 3 40 21 87 71 189 37 74 67 138 67 142 0 10 85
137 109 164 12 12 27 38 35 57 8 18 33 57 55 85 23 29 41 55 41 59 0 13 232
244 290 289 118 91 261 198 295 222 20 14 56 41 79 61 24 19 58 41 77 49 19 8
52 29 73 47 22 18 43 33 47 33 5 0 35 17 67 38 126 81 263 143 347 156 80 12
122 7 137 -17z m204 -33 c43 -20 104 -55 134 -79 30 -23 70 -50 89 -60 42 -21
228 -183 256 -222 11 -15 43 -53 71 -83 28 -30 63 -74 78 -98 15 -24 33 -45
41 -48 8 -3 23 -30 35 -60 23 -64 23 -64 8 -64 -6 0 -9 3 -5 6 3 4 -8 16 -26
28 -18 12 -39 36 -47 54 -9 18 -29 41 -44 51 -15 10 -43 40 -62 67 -32 46
-137 144 -153 144 -4 0 -34 27 -66 60 -42 42 -75 65 -109 76 -27 9 -83 39
-125 65 -42 27 -80 49 -86 49 -5 0 -27 5 -48 11 -30 8 -42 18 -53 44 -18 44
-18 60 2 79 21 21 19 21 110 -20z m507 -38 c29 -27 35 -46 14 -46 -15 0 -97
76 -97 91 0 13 49 -13 83 -45z m155 -130 c11 -11 22 -30 24 -41 7 -43 -74 -8
-92 40 -4 11 -6 23 -4 26 7 12 53 -3 72 -25z m-1029 -95 c7 -5 11 -14 7 -19
-9 -15 -36 -4 -36 14 0 16 9 18 29 5z m1181 -92 c0 -4 30 -43 66 -86 92 -109
132 -203 49 -114 -25 26 -45 52 -45 57 0 5 -11 22 -25 38 -14 16 -25 35 -25
43 0 7 -7 16 -15 19 -8 4 -15 13 -15 21 0 8 -4 12 -8 9 -4 -2 -8 4 -8 14 0 10
6 16 13 13 7 -3 13 -9 13 -14z m202 -276 c40 -48 87 -153 68 -153 -18 0 -100
130 -100 160 0 15 15 12 32 -7z m354 -644 c18 -37 19 -120 1 -113 -18 6 -47
90 -47 133 0 29 2 32 16 20 8 -7 22 -25 30 -40z m2022 -91 c12 -12 16 -116 6
-155 l-6 -23 -20 25 c-24 31 -69 55 -102 55 -24 0 -70 -41 -143 -128 -19 -22
-40 -35 -66 -39 l-38 -6 22 38 c14 23 36 43 58 52 20 8 50 29 68 47 45 45 99
87 152 118 54 32 53 32 69 16z m33 -250 c17 -40 23 -74 25 -138 1 -47 7 -98
14 -115 7 -17 14 -81 15 -145 1 -63 5 -128 9 -145 4 -16 11 -48 17 -70 10 -46
27 -268 39 -530 5 -99 14 -223 20 -275 22 -192 44 -734 56 -1371 5 -263 4
-358 -6 -398 -9 -39 -15 -50 -24 -41 -8 8 -13 175 -18 568 -10 827 -32 1297
-78 1652 -6 41 -10 103 -10 136 0 34 -7 97 -15 140 -21 113 -38 290 -40 429
-2 83 -8 134 -20 165 -20 54 -33 190 -18 190 6 0 21 -24 34 -52z m-407 -27
c15 -24 -125 -103 -215 -122 -30 -6 -72 -22 -95 -35 -40 -23 -140 -45 -199
-43 -30 1 -30 1 -4 9 14 4 44 20 67 35 31 21 55 28 99 29 51 2 103 22 123 47
3 3 23 12 45 19 22 7 67 26 100 42 66 31 71 32 79 19z m-1501 -206 c21 -20 37
-41 34 -48 -5 -18 -52 -20 -66 -3 -15 18 -27 86 -15 86 5 0 26 -16 47 -35z
m-2252 -6 c25 -25 21 -41 -14 -53 -32 -12 -44 -3 -56 42 -9 31 -8 32 20 32 16
0 38 -9 50 -21z m2888 -28 c9 -6 -1 -11 -31 -15 -50 -8 -88 1 -66 15 17 11 79
11 97 0z m-398 -11 c11 0 17 -4 14 -10 -8 -13 -72 -13 -79 -1 -7 11 14 21 32
15 8 -2 23 -4 33 -4z m-5690 -85 c32 -19 85 -42 117 -51 31 -8 80 -24 107 -34
28 -9 102 -27 165 -39 63 -12 142 -28 175 -36 33 -8 105 -18 160 -24 136 -15
603 -32 665 -24 73 9 100 -8 100 -62 0 -43 -33 -150 -69 -222 -12 -23 -21 -52
-21 -65 0 -44 -21 -98 -43 -113 -19 -12 -58 -13 -252 -5 -324 13 -376 18 -489
44 -202 48 -279 52 -302 15 -19 -31 -40 -239 -64 -639 -38 -605 -40 -620 -96
-657 -29 -18 -81 -174 -94 -278 -4 -38 -19 -100 -33 -136 -14 -36 -32 -99 -41
-140 -8 -41 -22 -96 -30 -124 -8 -27 -22 -102 -30 -165 -14 -106 -20 -124 -75
-235 -33 -66 -67 -147 -75 -179 -18 -70 -29 -85 -54 -70 -52 33 -33 1518 27
2179 6 61 17 193 26 295 8 102 19 237 24 300 5 63 15 146 21 185 6 38 15 118
19 177 12 162 36 177 162 103z m4199 19 c0 -8 -4 -14 -9 -14 -11 0 -22 26 -14
34 9 9 23 -3 23 -20z m2870 16 c4 0 11 -8 15 -17 17 -41 57 -420 70 -658 4
-66 13 -172 21 -235 8 -63 18 -203 24 -310 5 -107 15 -298 22 -425 15 -279 15
-1584 0 -1853 -10 -185 -17 -212 -52 -212 -25 0 -97 81 -105 120 -6 26 -1 44
26 93 29 55 33 73 37 158 4 90 2 102 -32 201 -41 119 -42 121 -31 279 9 132 4
161 -52 303 -42 108 -120 216 -192 266 -33 23 -42 105 -31 303 5 95 12 180 15
189 8 21 -9 130 -38 248 -19 75 -22 116 -23 355 -2 354 -13 506 -38 534 -28
30 -78 36 -165 18 -178 -38 -488 -66 -729 -66 l-233 0 -19 32 c-11 18 -20 46
-20 62 0 17 -12 55 -26 85 -24 53 -64 196 -64 233 0 9 9 26 20 37 19 19 32 20
243 19 254 -1 490 13 598 36 116 25 230 46 279 52 63 7 302 89 380 130 35 18
70 31 78 28 7 -3 17 -5 22 -5z m-3729 -25 c69 -36 125 -172 67 -163 -30 4
-130 178 -103 178 4 0 19 -7 36 -15z m1194 6 c3 -5 6 -29 7 -53 1 -33 -7 -56
-35 -102 -29 -47 -37 -70 -37 -108 0 -33 -5 -50 -15 -54 -8 -3 -23 -21 -34
-40 -19 -32 -23 -34 -75 -34 -47 0 -59 4 -82 27 -22 22 -28 37 -28 76 -1 42 3
52 31 75 17 15 34 37 37 49 9 30 30 35 97 21 45 -9 64 -9 85 0 28 13 29 26 3
89 -10 26 -10 34 0 47 15 18 37 21 46 7z m-267 -68 c10 -20 5 -43 -8 -43 -13
0 -32 39 -25 50 9 15 23 12 33 -7z m-1367 -42 c4 -18 21 -46 38 -62 27 -24 31
-35 31 -77 0 -41 3 -51 20 -55 19 -5 37 -33 28 -43 -9 -8 -38 8 -38 21 0 12
-21 25 -39 25 -5 0 -20 -11 -35 -25 -39 -36 -110 -31 -122 9 -3 11 -19 35 -35
51 l-28 30 21 58 c11 31 26 57 33 57 7 0 24 12 40 26 39 36 77 30 86 -15z
m819 -16 c0 -40 -27 -115 -42 -115 -11 0 0 106 14 133 14 28 28 20 28 -18z
m-1994 -157 c-4 -35 -14 -74 -23 -87 -14 -22 -16 -23 -25 -6 -14 23 -1 115 19
137 29 32 36 21 29 -44z m934 -28 c0 -12 -40 -34 -47 -26 -9 8 17 36 33 36 8
0 14 -4 14 -10z m100 -64 c0 -15 -27 -29 -40 -21 -5 3 -7 12 -3 20 7 19 43 20
43 1z m1495 -8 c29 -13 33 -43 8 -70 -26 -29 -48 -22 -63 21 -19 58 -1 75 55
49z m-1711 -43 c-6 -16 -24 -21 -24 -7 0 11 11 22 21 22 5 0 6 -7 3 -15z m406
-6 c0 -11 -4 -17 -10 -14 -5 3 -10 13 -10 21 0 8 5 14 10 14 6 0 10 -9 10 -21z
m150 -4 c0 -8 -4 -15 -10 -15 -5 0 -10 7 -10 15 0 8 5 15 10 15 6 0 10 -7 10
-15z m1398 -7 c-3 -7 -11 -13 -18 -13 -7 0 -15 6 -17 13 -3 7 4 12 17 12 13 0
20 -5 18 -12z m-295 -56 c-12 -33 -26 -42 -62 -42 -20 0 -42 -5 -49 -12 -23
-23 -13 36 11 63 29 34 46 39 79 23 19 -10 26 -19 21 -32z m-1163 -26 c0 -21
-21 -31 -30 -15 -5 7 -6 17 -4 21 9 14 34 9 34 -6z m-372 -463 c31 -18 131
-133 157 -183 7 -14 16 -42 20 -63 8 -42 21 -55 38 -38 6 6 26 11 44 11 28 0
37 -6 54 -35 21 -34 64 -55 117 -55 27 0 64 -35 60 -58 -2 -13 -15 -17 -48
-18 -81 -3 -96 -65 -27 -111 45 -30 54 -58 25 -77 -14 -8 -31 -3 -82 23 -79
40 -84 45 -95 107 -11 59 -26 100 -39 108 -5 3 -24 -2 -42 -11 -42 -21 -55
-12 -100 64 -19 33 -47 74 -62 92 -16 18 -28 45 -28 60 0 15 -16 51 -35 81
-35 55 -40 75 -29 104 8 21 32 20 72 -1z m1837 -30 c13 -12 15 -25 10 -52 -11
-53 -10 -82 6 -119 13 -31 12 -35 -5 -48 -11 -8 -42 -14 -69 -14 -44 0 -54 -4
-83 -35 -36 -39 -49 -42 -82 -19 -40 28 -20 90 43 131 26 17 37 35 49 77 24
83 89 122 131 79z m-1010 -155 c50 -24 59 -48 20 -48 -39 0 -85 27 -85 50 0
25 9 25 65 -2z m719 -144 c9 -8 16 -19 16 -23 0 -5 11 -20 25 -35 14 -15 25
-30 25 -35 0 -4 -13 -23 -30 -41 -20 -23 -30 -44 -30 -66 0 -50 -14 -76 -58
-111 l-41 -33 -21 35 c-16 26 -21 48 -19 87 3 48 1 52 -22 59 -14 3 -42 14
-62 24 -29 13 -37 23 -37 44 0 51 13 58 71 37 51 -19 52 -19 66 -1 7 11 13 24
13 31 0 22 30 44 60 44 16 0 36 -7 44 -16z m-576 -143 c23 -19 42 -41 42 -47
0 -17 -58 -64 -80 -64 -10 0 -34 18 -54 41 -37 40 -37 41 -20 67 22 34 46 52
59 44 5 -3 29 -22 53 -41z m255 21 c15 -15 27 -33 27 -38 0 -5 -13 -25 -30
-44 -16 -19 -29 -39 -30 -45 0 -5 14 -24 32 -42 l32 -33 -23 -43 c-41 -76 -66
-100 -94 -93 -13 3 -34 14 -46 23 l-22 18 50 59 c68 80 71 100 25 147 l-36 37
28 41 c34 48 51 51 87 13z m-508 -19 l48 -36 -22 -18 c-12 -10 -38 -21 -57
-25 -28 -5 -41 -1 -69 20 -39 30 -43 50 -18 78 25 28 65 22 118 -19z m-1931
-15 c3 -13 7 -43 10 -68 9 -92 52 -269 86 -355 24 -63 141 -197 198 -227 18
-10 35 -25 39 -35 14 -41 35 -53 90 -53 47 0 55 -3 62 -24 9 -23 29 -36 57
-36 8 0 60 45 115 100 55 55 111 103 125 106 46 12 142 -1 166 -22 13 -11 36
-26 52 -34 16 -8 36 -29 44 -47 9 -18 24 -35 34 -39 10 -3 26 -18 35 -32 9
-15 27 -39 40 -53 13 -14 33 -49 43 -77 19 -49 19 -52 2 -52 -27 0 -61 28 -91
74 -54 84 -86 126 -101 131 -8 3 -33 21 -55 41 -37 33 -44 35 -88 31 -42 -4
-55 -11 -98 -53 -28 -27 -59 -64 -71 -82 -41 -66 -138 -83 -213 -37 -22 14
-52 25 -66 25 -14 0 -41 11 -60 24 -19 14 -54 34 -78 45 -118 56 -252 222
-285 355 -9 36 -26 87 -38 113 -29 64 -31 221 -5 271 20 37 45 42 51 10z
m-180 -124 c9 -8 16 -21 16 -27 0 -25 -31 -56 -63 -62 -17 -4 -48 -16 -67 -26
-64 -34 -265 -107 -315 -114 -49 -8 -181 -69 -216 -101 -28 -25 -24 -59 10
-83 16 -11 36 -40 46 -63 9 -24 34 -59 56 -79 33 -31 39 -42 39 -78 0 -28 8
-54 25 -79 14 -20 25 -41 25 -46 0 -5 6 -17 14 -25 17 -20 38 -91 26 -91 -12
0 -50 50 -50 65 0 7 -36 50 -80 95 -45 47 -82 95 -85 111 -5 22 -22 36 -80 68
-96 53 -115 53 -154 -1 -34 -46 -43 -74 -60 -178 -6 -36 -33 -135 -61 -220
-27 -85 -54 -187 -60 -226 -10 -76 -34 -145 -70 -206 -12 -21 -29 -64 -37 -95
-8 -32 -41 -105 -73 -163 -64 -116 -80 -174 -80 -300 0 -129 25 -175 149 -271
123 -95 135 -109 111 -124 -6 -4 -22 0 -35 9 -17 11 -48 16 -99 16 -74 0 -76
-1 -91 -31 -25 -48 -21 -282 6 -385 12 -43 25 -101 29 -129 10 -60 35 -133 54
-155 8 -8 34 -59 59 -112 38 -83 58 -110 125 -178 66 -66 97 -88 179 -129 56
-28 121 -52 149 -56 27 -3 79 -13 115 -20 36 -8 121 -17 190 -20 68 -4 160
-13 205 -21 44 -8 103 -14 131 -14 120 0 229 -40 264 -97 23 -36 20 -60 -8
-69 -10 -3 -38 -14 -63 -24 -25 -10 -72 -27 -105 -38 -33 -11 -118 -41 -190
-67 -71 -25 -147 -50 -167 -54 -80 -17 -73 26 11 69 32 15 64 36 72 46 8 9 42
30 76 45 68 31 103 70 86 98 -23 37 -61 44 -261 47 -129 3 -214 9 -252 19 -32
8 -82 15 -111 15 -181 1 -395 113 -504 263 -25 33 -56 90 -69 126 -49 133 -86
263 -86 304 0 23 -7 74 -15 112 -8 39 -15 100 -15 136 0 36 -7 88 -15 115 -24
77 -36 224 -35 417 1 160 4 190 30 296 30 121 91 269 138 330 32 43 51 95 52
145 1 108 78 438 141 601 10 28 28 84 39 124 34 120 80 184 205 283 117 93
317 190 505 245 47 13 99 31 116 39 63 28 80 33 121 33 25 1 48 -5 57 -15z
m2065 -58 c17 -21 31 -41 31 -44 0 -3 -11 -20 -24 -37 -14 -18 -28 -44 -32
-59 -10 -41 -26 -26 -44 43 -10 34 -27 73 -40 86 -26 28 -20 42 23 53 39 11
47 7 86 -42z m271 -56 c30 -30 23 -66 -23 -117 l-20 -23 -28 38 c-36 46 -36
66 -3 97 33 30 48 31 74 5z m-28 -187 c4 -31 -10 -83 -22 -83 -19 0 -25 46
-10 84 13 34 28 33 32 -1z m2608 -103 c77 -39 162 -93 180 -115 8 -9 32 -29
54 -45 23 -15 84 -72 136 -126 52 -54 127 -130 165 -169 88 -87 123 -134 146
-196 23 -59 24 -102 5 -191 -21 -101 -12 -177 34 -278 59 -132 64 -244 14
-312 -65 -90 -85 -133 -82 -177 1 -27 -2 -46 -10 -49 -14 -4 -78 43 -86 64 -6
16 36 84 85 139 56 62 58 152 4 226 -55 75 -55 78 -43 302 15 256 13 262 -86
364 -52 53 -85 78 -121 91 -47 18 -155 92 -219 151 -15 14 -37 45 -47 69 -19
44 -67 108 -125 166 -52 53 -90 116 -69 116 3 0 33 -14 65 -30z m-3480 -471
c0 -6 -4 -7 -10 -4 -5 3 -10 11 -10 16 0 6 5 7 10 4 6 -3 10 -11 10 -16z
m4837 -729 c4 -93 2 -153 -6 -182 -6 -24 -13 -118 -15 -209 -1 -91 -6 -171
-10 -177 -9 -15 -25 -156 -35 -317 -9 -130 -18 -201 -30 -220 -11 -19 -16 60
-9 155 4 52 12 156 17 230 5 74 17 168 26 207 13 54 15 86 8 125 -4 29 -5 76
-2 103 4 28 8 112 8 189 1 152 18 279 34 251 5 -9 11 -79 14 -155z m-6365
-664 c12 -18 -2 -25 -32 -14 -39 13 -40 37 -2 30 15 -3 30 -10 34 -16z m5859
-2 c16 -19 15 -47 -4 -201 -11 -91 -11 -120 -1 -155 39 -134 64 -231 60 -235
-7 -8 -85 46 -96 66 -5 11 -10 44 -10 75 0 39 -7 68 -24 100 -32 60 -46 243
-23 297 27 65 69 88 98 53z m-873 -226 c7 -7 12 -24 12 -39 0 -47 -231 -301
-482 -529 -42 -39 -100 -101 -127 -138 -28 -37 -68 -81 -90 -99 -28 -23 -42
-44 -50 -78 -9 -35 -18 -48 -38 -56 -44 -17 -56 -6 -39 36 8 19 15 62 15 95
-1 70 41 189 95 273 73 111 288 298 588 509 54 38 95 47 116 26z m82 -158 c27
-15 43 -70 30 -106 -18 -47 -58 -93 -114 -130 -29 -19 -58 -45 -65 -57 -7 -12
-31 -35 -53 -52 -136 -99 -288 -264 -297 -323 -5 -33 -12 -40 -61 -64 -61 -30
-100 -37 -81 -14 6 7 10 34 9 60 -1 35 4 54 20 74 12 15 32 45 43 67 27 49 64
96 154 194 39 42 86 94 105 116 20 22 60 59 90 83 30 24 78 70 108 103 54 59
75 69 112 49z m1186 -166 c9 -34 -4 -120 -23 -157 -12 -25 -13 -39 -4 -86 7
-36 8 -67 2 -89 -11 -38 -50 -91 -52 -71 -4 38 4 110 18 157 10 38 13 73 8
121 -5 51 -3 76 10 109 20 48 32 53 41 16z m-1278 -264 c2 -30 -6 -46 -64
-118 -72 -90 -119 -126 -174 -136 -91 -15 -72 41 62 184 97 104 105 110 138
108 32 -3 35 -6 38 -38z m976 -44 c-1 -40 -16 -62 -33 -52 -24 15 -3 102 22
93 7 -2 11 -21 11 -41z m216 -221 c-22 -222 -30 -294 -40 -345 -6 -30 -15
-125 -20 -210 -27 -420 -28 -429 -63 -510 -8 -19 -18 -62 -22 -95 -4 -33 -16
-81 -28 -107 -23 -50 -44 -67 -27 -22 6 14 10 43 10 65 0 23 9 75 19 117 11
43 22 97 26 122 4 25 13 70 20 100 13 49 31 175 40 270 1 19 8 152 14 295 6
143 15 280 21 305 10 41 48 115 55 108 2 -2 -1 -44 -5 -93z m-4693 -31 c125
-42 246 -107 282 -152 l31 -40 -67 15 c-38 8 -95 27 -128 43 -90 42 -140 53
-214 45 l-64 -7 6 39 c6 35 44 83 67 83 5 0 44 -12 87 -26z m968 -74 c22 -11
44 -19 49 -20 32 -1 59 -60 35 -76 -14 -9 -179 76 -179 92 0 28 42 30 95 4z
m-1297 -48 c2 -24 -6 -47 -30 -85 -46 -73 -125 -176 -157 -207 -15 -14 -32
-33 -38 -43 -9 -18 -14 -17 -94 14 -94 35 -118 53 -154 115 -53 91 -25 137
107 174 46 13 92 28 103 34 37 19 130 35 195 33 l65 -2 3 -33z m3474 -53 c10
-6 18 -18 16 -27 -3 -17 -19 -22 -133 -40 -145 -24 -324 -60 -375 -77 -112
-36 -221 -80 -239 -96 -49 -46 -91 -50 -120 -13 -41 52 -17 114 43 114 17 0
74 12 126 26 52 15 118 30 145 35 134 24 173 33 207 51 81 40 276 56 330 27z
m-1038 -71 c39 -36 89 -268 57 -268 -5 0 -27 24 -49 53 -75 97 -80 100 -174
98 -119 -1 -246 -15 -373 -41 -88 -18 -128 -21 -199 -16 -107 7 -158 -5 -191
-48 -58 -74 -67 -79 -85 -45 -19 35 -1 80 57 140 66 70 65 69 379 69 323 0
373 5 437 45 63 40 106 44 141 13z m119 -347 c11 -22 11 -28 2 -25 -15 6 -38
54 -26 54 5 0 16 -13 24 -29z m90 -97 c15 -18 36 -36 47 -39 20 -6 74 -94 65
-104 -4 -3 -26 5 -50 18 -29 15 -47 33 -54 54 -6 16 -27 45 -46 64 -41 40 -49
71 -12 52 12 -6 34 -27 50 -45z m2164 -706 c-7 -83 -122 -353 -196 -458 -118
-169 -131 -185 -168 -198 -21 -7 -40 -9 -45 -4 -10 10 35 60 95 105 20 15 37
36 37 45 0 10 17 38 38 64 21 25 47 68 57 94 10 27 24 56 31 64 7 8 22 40 33
70 12 30 25 63 31 72 5 9 19 54 30 100 12 46 26 89 32 96 23 27 30 11 25 -50z
m-482 -691 c-9 -22 -145 -82 -145 -64 0 13 113 73 142 76 4 1 5 -5 3 -12z
m-252 -112 c-30 -21 -100 -45 -130 -45 -13 0 -48 -11 -77 -24 -48 -22 -110
-42 -160 -52 -10 -2 -21 -5 -23 -8 -3 -3 -11 1 -18 7 -10 9 -1 17 41 34 30 12
87 29 127 39 39 9 85 23 100 31 30 15 95 30 137 32 l24 1 -21 -15z m-1295 -80
c78 -13 151 -29 162 -35 39 -21 21 -47 -80 -114 -117 -77 -176 -118 -195 -135
-11 -9 -49 -34 -85 -56 -36 -21 -114 -71 -175 -110 -60 -40 -141 -89 -180
-110 -38 -21 -89 -51 -112 -67 -23 -15 -53 -32 -67 -38 -14 -5 -47 -24 -73
-42 -59 -40 -518 -270 -665 -332 -141 -60 -167 -64 -248 -33 -103 39 -187 78
-290 134 -52 28 -177 94 -277 145 -119 60 -186 101 -194 116 -20 36 -1 45 78
38 155 -15 407 -18 478 -7 40 7 134 16 208 21 l135 8 59 39 c32 22 75 46 97
53 21 7 54 23 74 36 19 13 47 24 62 24 31 0 172 70 210 104 14 12 37 28 53 36
15 7 36 28 46 46 23 39 113 107 163 123 20 7 47 20 60 30 55 44 145 82 204 87
53 5 191 32 269 54 54 15 138 10 283 -15z m770 -57 c-4 -12 -89 -49 -140 -62
-38 -9 -37 16 0 42 41 30 148 45 140 20z m-250 -140 c-2 -15 -20 -31 -57 -50
-30 -16 -56 -26 -59 -24 -9 10 39 64 70 79 44 22 50 21 46 -5z m-128 -80 c0
-19 -42 -58 -62 -58 -30 0 -21 24 22 53 29 20 40 21 40 5z m-270 -198 c0 -5
-16 -22 -36 -37 -20 -15 -44 -35 -53 -43 -22 -21 -72 -42 -80 -35 -3 4 5 16
19 26 14 11 33 27 43 35 9 7 21 14 25 14 4 0 18 12 31 25 23 25 51 33 51 15z
m-200 -145 c-24 -26 -50 -33 -50 -15 0 6 15 17 33 25 43 19 44 19 17 -10z
m-155 -100 c-27 -24 -72 -56 -100 -71 -27 -15 -53 -32 -57 -37 -3 -6 -15 -11
-25 -12 -10 0 -24 -5 -31 -9 -7 -4 -16 -5 -19 -2 -9 9 17 36 51 53 17 9 45 27
61 41 30 26 142 82 160 82 6 -1 -12 -21 -40 -45z m-440 -255 c-3 -5 -12 -10
-20 -10 -8 0 -18 -6 -22 -14 -9 -15 -46 -36 -64 -36 -6 0 0 9 14 20 14 11 28
20 32 20 3 0 13 7 21 15 17 17 49 21 39 5z m-295 -158 c0 -8 -43 -32 -55 -32
-15 0 11 30 28 33 12 2 23 5 25 6 1 0 2 -3 2 -7z m-75 -42 c-3 -5 -11 -10 -16
-10 -6 0 -7 5 -4 10 3 6 11 10 16 10 6 0 7 -4 4 -10z"/>
<path d="M26426 26425 c-9 -23 -8 -55 2 -55 19 0 44 28 40 46 -4 24 -33 30
-42 9z"/>
</g>
</svg>
